<svg id="uuid-3553dbae-b119-430c-8ddb-8305183e82c3" xmlns="http://www.w3.org/2000/svg" width="18" height="18" viewBox="0 0 18 18">
  <defs>
    <linearGradient id="uuid-8f9a852e-1b5c-4502-9b8e-0acba34b90d6" x1="9" y1="3.905" x2="9" y2="14.401" gradientUnits="userSpaceOnUse">
      <stop offset="0" stop-color="#32bedd" />
      <stop offset=".18" stop-color="#32caea" />
      <stop offset=".41" stop-color="#32d2f2" />
      <stop offset=".78" stop-color="#32d4f5" />
    </linearGradient>
    <linearGradient id="uuid-904f3c36-e130-45e2-8f3c-b66304fefc70" x1="10.189" y1="13.447" x2="16.702" y2="13.447" gradientUnits="userSpaceOnUse">
      <stop offset="0" stop-color="#4aa647" />
      <stop offset=".998" stop-color="#8de971" />
    </linearGradient>
    <linearGradient id="uuid-4c19c87f-f265-4935-b9db-201b50303d0d" x1="10.666" y1="11.382" x2="13.163" y2="11.382" gradientUnits="userSpaceOnUse">
      <stop offset=".15" stop-color="#ccc" />
      <stop offset="1" stop-color="#707070" />
    </linearGradient>
    <linearGradient id="uuid-2977ee43-3a39-4f7a-a3e8-110972a4aa99" x1="13.769" y1="15.634" x2="16.235" y2="15.634" gradientUnits="userSpaceOnUse">
      <stop offset="0" stop-color="#707070" />
      <stop offset=".85" stop-color="#ccc" />
    </linearGradient>
  </defs>
  <path d="M10.352,13.216l.004-.004.004-.004.066-.069.004-.004.004-.004.607-.607c.08-.08.175-.136.279-.171l-.038-.038c-.238.101-.495.153-.758.153-1.072,0-1.944-.872-1.944-1.944s.872-1.944,1.944-1.944,1.944.872,1.944,1.944c0,.263-.052.52-.153.758l.038.038c.024-.069.056-.136.101-.198l.01-.013.011-.012.028-.032.011-.012.012-.012.607-.607c.444-.444,1.035-.689,1.663-.689s1.218.245,1.663.689c.888.888.923,2.311.081,3.24l-.004.004-.004.004-.066.069-.004.004-.004.004-.607.607c-.012.012-.026.023-.039.034h1.472c.329,0,.595-.267.595-.595V3.905H.123v9.9c0,.329.267.595.595.595h9.058c.072-.428.263-.84.576-1.185Z" fill="url(#uuid-8f9a852e-1b5c-4502-9b8e-0acba34b90d6)" />
  <path d="M2.536,5.054h12.918c.152.006.272.13.272.282v1.462c0,.152-.12.276-.272.282H2.536c-.152-.006-.272-.13-.272-.282v-1.462c0-.152.12-.276.272-.282Z" fill="#fff" />
  <path d="M.719.125h16.563c.329,0,.595.267.595.595v3.185H.123V.71c.006-.325.271-.585.595-.585Z" fill="#198ab3" />
  <g>
    <path d="M11.04,12.524c.08-.08.175-.136.279-.171l-.038-.038c-.238.101-.495.153-.758.153-.939,0-1.724-.669-1.905-1.555H2.546c-.152.006-.272.13-.272.282v1.472c0,.152.12.276.272.282h8.069l.425-.425Z" fill="#50e6ff" />
    <path d="M12.453,11.123l.01-.013.011-.012.028-.032.011-.012.012-.012.129-.129h-.224c-.026.127-.064.25-.114.369l.038.038c.024-.069.056-.136.101-.198Z" fill="#50e6ff" />
  </g>
  <path d="M10.522,8.58c.892,0,1.643.604,1.872,1.425h1.328c.327-.168.692-.258,1.07-.258.303,0,.596.058.869.167.046-.05.075-.117.075-.19v-1.472c0-.152-.12-.276-.272-.282H2.546c-.016,0-.031.002-.047.005-.153.029-.254.176-.225.329v1.42c0,.152.12.276.272.282h6.105c.228-.82.98-1.425,1.872-1.425Z" fill="#9cebff" />
  <g>
    <path d="M11.355,12.84c.112-.112.293-.112.405,0,.102.102.111.261.028.373l-.028.032-.607.607c-.521.521-.521,1.367,0,1.888.503.503,1.307.521,1.831.054l.057-.054.607-.607c.112-.112.293-.112.405,0,.102.102.111.261.028.373l-.028.032-.607.607c-.745.745-1.953.745-2.698,0-.722-.722-.744-1.88-.066-2.629l.066-.069.607-.607ZM13.445,10.749c.745-.745,1.953-.745,2.698,0,.722.722.744,1.88.066,2.629l-.066.069-.607.607c-.112.112-.293.112-.405,0-.102-.102-.111-.261-.028-.373l.028-.032.607-.607c.521-.521.521-1.367,0-1.888-.503-.503-1.307-.521-1.831-.054l-.057.054-.607.607c-.112.112-.293.112-.405,0-.102-.102-.111-.261-.028-.373l.028-.032.607-.607ZM11.894,14.594l2.698-2.698c.112-.112.293-.112.405,0,.102.102.111.263.026.375l-.026.029-2.698,2.698c-.112.112-.293.112-.405,0-.102-.102-.111-.263-.026-.375l.026-.029,2.698-2.698-2.698,2.698Z" fill="url(#uuid-904f3c36-e130-45e2-8f3c-b66304fefc70)" />
    <g>
      <path d="M13.095,12.82c.035-.035.035-.093,0-.128l-2.967-2.967-.029-.026c-.177-.135-.474-.036-.474.296,0,.023.01.046.027.063l3.038,3.038c.035.035.093.035.128,0l.276-.276Z" fill="url(#uuid-4c19c87f-f265-4935-b9db-201b50303d0d)" />
      <path d="M17.483,17.08l-3.282-3.282c-.035-.035-.093-.035-.128,0l-.276.276c-.035.035-.035.093,0,.128l3.211,3.211.029.026c.177.134.474.036.474-.296,0-.023-.01-.046-.027-.063Z" fill="url(#uuid-2977ee43-3a39-4f7a-a3e8-110972a4aa99)" />
    </g>
    <circle cx="10.523" cy="10.524" r="1.5" fill="#0087d4" />
    <circle cx="16.373" cy="16.375" r="1.5" fill="#0087d4" />
  </g>
</svg>