<svg id="uuid-efbfc352-5a7a-4b97-940b-cb4fbf89f0c3" xmlns="http://www.w3.org/2000/svg" width="18" height="18" viewBox="0 0 18 18">
  <defs>
    <linearGradient id="uuid-90bb2e31-0c3c-4ef1-9702-2fb99c7b9282" x1="8.21" y1="2.897" x2="8.21" y2="13.144" gradientUnits="userSpaceOnUse">
      <stop offset="0" stop-color="#f0fffd" />
      <stop offset="1" stop-color="#d2ebff" />
    </linearGradient>
  </defs>
  <rect width="18" height="18" fill="none" />
  <g>
    <g>
      <path d="M9.466,10.238v-.083c0-.205.109-.395.287-.498l.072-.042,3.722-2.161.072-.042c.179-.104.4-.104.579,0l.072.042,1.774,1.034V2.659c0-.343-.278-.621-.621-.621H.996c-.343,0-.621.278-.621.621v10.837c0,.343.278.621.621.621h8.47v-3.879Z" fill="#0078d4" />
      <rect x="7.294" y="2.421" width="1.832" height=".248" rx=".114" ry=".114" fill="#f2f2f2" />
      <path d="M9.466,10.238v-.083c0-.205.109-.395.287-.498l.072-.042,3.722-2.161.072-.042c.179-.104.4-.104.579,0l.072.042.77.449V3.208c0-.172-.139-.311-.311-.311H1.69c-.172,0-.311.139-.311.311v9.626c0,.172.139.311.311.311h7.777v-2.906Z" fill="url(#uuid-90bb2e31-0c3c-4ef1-9702-2fb99c7b9282)" isolation="isolate" opacity=".9" />
    </g>
    <g>
      <path d="M17.625,10.243v4.302l-3.717,2.161v-4.307l3.717-2.156Z" fill="#32bedd" />
      <path d="M17.625,10.243l-3.717,2.161-3.722-2.166,3.722-2.161,3.717,2.166Z" fill="#9cebff" />
      <path d="M13.908,12.404v4.301l-3.722-2.161v-4.307l3.722,2.166Z" fill="#50e6ff" />
      <path d="M10.186,14.545l3.722-2.146v4.307l-3.722-2.161Z" fill="#9cebff" />
      <path d="M17.625,14.545l-3.717-2.146v4.307l3.717-2.161Z" fill="#50e6ff" />
    </g>
  </g>
</svg>